<?xml version="1.0" encoding="utf-8"?>
<!-- Generator: Adobe Illustrator 22.0.0, SVG Export Plug-In . SVG Version: 6.00 Build 0)  -->
<svg version="1.1" id="b49f4f68-d79e-4476-a14b-b3f27440c724"
	 xmlns="http://www.w3.org/2000/svg" xmlns:xlink="http://www.w3.org/1999/xlink" x="0px" y="0px" viewBox="0 0 995 836.7"
	 style="enable-background:new 0 0 995 836.7;" xml:space="preserve">
<style type="text/css">
	.st0{fill:#F2F2F2;}
	.st1{fill:none;stroke:#3F3D56;stroke-miterlimit:10;}
	.st2{fill:#57B894;}
	.st3{fill:#6C63FF;}
	.st4{fill:#2F2E41;}
	.st5{opacity:0.1;enable-background:new    ;}
	.st6{fill:#FFFFFF;}
	.st7{fill:#FDA57D;}
	.st8{fill:#3F3D56;}
</style>
<title>coffee break</title>
<path class="st0" d="M711.3,91.4c-85-0.4-161.4,36.7-213.8,95.8C445,128.1,368.7,91,283.7,91.4C124.1,92.1-3.1,223.5,0.1,384.2
	C3.1,540,129.5,665.4,285,665.4c6,0,12-0.2,18-0.6c129.6-8.1,259.5-8.1,389.1,0c5.9,0.4,11.9,0.6,18,0.6
	c155.5,0,281.9-125.4,284.9-281.2C998.1,223.5,870.9,92.1,711.3,91.4z"/>
<path class="st1" d="M657.4,7.5c-8.7,0.5-16.4,5.9-19.8,13.9c-5,12,1.4,26,11,34.8c9.6,8.7,21.9,13.7,33,20.3
	c15,8.8,28.5,21,36,36.7c7.5,15.7,8.3,35.2-0.5,50.1c-8.2,13.9-23.1,22.3-37.3,29.9"/>
<ellipse class="st2" cx="670" cy="8.5" rx="17.5" ry="8.5"/>
<ellipse class="st2" cx="684" cy="64.5" rx="17.5" ry="8.5"/>
<ellipse class="st2" cx="652" cy="73.5" rx="17.5" ry="8.5"/>
<ellipse class="st2" cx="702" cy="120.5" rx="17.5" ry="8.5"/>
<ellipse class="st2" cx="737" cy="120.5" rx="17.5" ry="8.5"/>
<path class="st1" d="M749.9,286.2c-8-3.4-17.3-2-23.9,3.6c-9.8,8.5-10.3,24-5.6,36c4.7,12.1,13.5,22,20.6,32.9
	c9.5,14.6,16.2,31.5,15.9,48.9s-8.2,35.2-22.8,44.7c-13.5,8.8-30.6,9.7-46.7,10.2"/>
<ellipse transform="matrix(0.4444 -0.8958 0.8958 0.4444 160.361 844.1367)" class="st2" cx="760.7" cy="292.8" rx="8.5" ry="17.5"/>
<ellipse transform="matrix(0.4444 -0.8958 0.8958 0.4444 102.9881 864.4077)" class="st2" cx="748.4" cy="349.2" rx="8.5" ry="17.5"/>
<ellipse transform="matrix(0.4444 -0.8958 0.8958 0.4444 90.3553 831.7229)" class="st2" cx="715.7" cy="343" rx="8.5" ry="17.5"/>
<ellipse transform="matrix(0.4444 -0.8958 0.8958 0.4444 46.0138 888.8764)" class="st2" cx="739.6" cy="407.3" rx="8.5" ry="17.5"/>
<ellipse transform="matrix(0.4444 -0.8958 0.8958 0.4444 49.5007 925.6061)" class="st2" cx="771" cy="422.9" rx="8.5" ry="17.5"/>
<path class="st1" d="M298,366.4c6.2-6.1,15.3-8.3,23.5-5.5c12.2,4.3,18.4,18.5,18.5,31.4s-4.4,25.4-7,38.1
	c-3.5,17.1-3.4,35.3,3.3,51.3s20.6,29.7,37.7,33.1c15.8,3.2,32-2.3,47.2-7.7"/>
<ellipse transform="matrix(0.6684 -0.7438 0.7438 0.6684 -183.7597 340.8318)" class="st2" cx="290.3" cy="376.5" rx="17.5" ry="8.5"/>
<ellipse transform="matrix(0.6684 -0.7438 0.7438 0.6684 -208.6349 380.7229)" class="st2" cx="322.6" cy="424.3" rx="17.5" ry="8.5"/>
<ellipse transform="matrix(0.6684 -0.7438 0.7438 0.6684 -186.0905 395.7123)" class="st2" cx="350.7" cy="406.5" rx="17.5" ry="8.5"/>
<ellipse transform="matrix(0.6684 -0.7438 0.7438 0.6684 -236.6099 419.6121)" class="st2" cx="352.3" cy="475.2" rx="17.5" ry="8.5"/>
<ellipse transform="matrix(0.6684 -0.7438 0.7438 0.6684 -263.7333 410.846)" class="st2" cx="328.9" cy="501.2" rx="17.5" ry="8.5"/>
<path class="st3" d="M700.5,251l-2.8,20.2l-17,124.5l-27.8,203.8l-7,51c-1.1,8.1-8,14.1-16.1,14.1H444.2c-8.1,0-15-6-16.1-14
	l-7.1-51.1l-28.3-203.8L375.4,271l-2.8-20c-1.2-8.9,5-17.1,13.9-18.3c0.7-0.1,1.5-0.2,2.2-0.2h295.7c9,0,16.3,7.3,16.3,16.3
	C700.6,249.5,700.6,250.2,700.5,251z"/>
<path class="st4" d="M408.3,178.5h257.5c9,0,16.3,7.3,16.3,16.3v21.5c0,9-7.3,16.3-16.3,16.3H408.3c-9,0-16.3-7.3-16.3-16.3v-21.5
	C392,185.8,399.3,178.5,408.3,178.5z"/>
<path class="st5" d="M682,204v12.2c0,9-7.3,16.3-16.3,16.3H408.3c-9,0-16.3-7.3-16.3-16.3V204C488.4,213.2,585.6,213.2,682,204z"/>
<circle class="st4" cx="459.5" cy="343" r="44"/>
<circle class="st4" cx="615.5" cy="343" r="44"/>
<circle class="st6" cx="457.5" cy="343" r="12"/>
<circle class="st6" cx="475.5" cy="320" r="5"/>
<circle class="st6" cx="615.5" cy="343" r="12"/>
<circle class="st6" cx="633.5" cy="320" r="5"/>
<path class="st5" d="M699.6,243L699.6,243C699.6,243,699.5,243,699.6,243c-0.4-1.2-1-2.2-1.7-3.2l0,0c-0.2-0.3-0.4-0.6-0.6-0.9
	c-0.1-0.1-0.1-0.2-0.2-0.3c-0.6-0.8-1.3-1.5-2.1-2.2c-0.2-0.1-0.3-0.3-0.5-0.4c-0.2-0.2-0.4-0.3-0.6-0.5c-0.3-0.2-0.5-0.4-0.8-0.5
	c-0.2-0.1-0.4-0.3-0.6-0.4c-0.3-0.2-0.7-0.4-1-0.5c-0.2-0.1-0.3-0.2-0.5-0.2c-0.3-0.1-0.7-0.3-1-0.4c-0.1-0.1-0.3-0.1-0.4-0.2
	c-0.5-0.2-1-0.3-1.5-0.4c-0.1,0-0.2,0-0.4-0.1c-0.4-0.1-0.8-0.2-1.2-0.2c-0.2,0-0.3,0-0.5-0.1c-0.5-0.1-1.1-0.1-1.6-0.1l0,0H388.7
	c-9,0-16.3,7.4-16.2,16.4c0,0.7,0.1,1.4,0.1,2.1l0.5,3.4l2.3,16.7l0,0l17.3,124.5h0l22.7,163.5l12.7,91.4c1.1,8,8,14,16.1,14h8.8
	c-0.4-1.1-0.7-2.3-0.9-3.5l-8.6-61.6h209.4l27.8-203.8H415.2l-17-122.6c99.7,8.1,200,7.4,299.6-1.9l2.8-20.2
	C700.8,248.3,700.5,245.5,699.6,243z"/>
<path class="st4" d="M723.7,259.5c-124.1,13.5-249.4,13.5-373.5,0c-9,0-16.3-7.3-16.3-16.3l0,0v-21.5c0-9,7.3-16.3,16.3-16.3l0,0
	c124,15.2,249.5,15.2,373.5,0c9,0,16.3,7.3,16.3,16.3v21.5C740,252.2,732.7,259.5,723.7,259.5z"/>
<path class="st4" d="M660.5,592h-250c-4.6,0-8.6-3.4-9.3-7.9l-27-170.1c-0.8-5.1,2.7-10,7.8-10.8c0.5-0.1,1-0.1,1.5-0.1h305.8
	c5.2,0,9.4,4.2,9.4,9.4c0,0.5,0,1.1-0.1,1.6l-28.8,170.1C669.1,588.7,665.1,592,660.5,592z"/>
<path class="st3" d="M632.1,470.7c3.6,0.7,6,4.1,5.4,7.8c-0.2,1.3-0.8,2.4-1.7,3.4c-15.9,16.9-54.3,52.2-99.2,52.2
	s-83.4-35.3-99.2-52.2c-2.5-2.7-2.4-6.9,0.3-9.4c0.9-0.9,2.1-1.5,3.4-1.7C504.1,459.1,568.9,459.1,632.1,470.7L632.1,470.7z"/>
<path class="st6" d="M586.5,481.3c3.6,0.6,6.1,4,5.5,7.6c-0.2,1.4-0.9,2.7-1.9,3.7c-10.7,10.5-30.7,26.3-53.6,26.3
	c-22.9,0-42.9-15.8-53.6-26.3c-2.6-2.6-2.7-6.8-0.1-9.4c1-1,2.3-1.7,3.7-1.9C519.6,475.8,553.4,475.8,586.5,481.3L586.5,481.3z"/>
<line class="st1" x1="126.5" y1="665" x2="817.5" y2="665"/>
<path class="st7" d="M183.7,572.4v28.1l14.4,16.7c0,0,6.1-2.3,6.1-17.5l2.3-22L183.7,572.4z"/>
<path class="st7" d="M198.1,600.6c0,0-23.6-16-24.3-21.3s-34.2-29.7-28.9-14.4c5.3,15.2,22,22,22,22s12.9,35,24.3,34.2
	S202.7,605.9,198.1,600.6z"/>
<polygon class="st8" points="211.8,771.6 214.1,785.3 201.9,782.3 201.9,771.6 "/>
<path class="st4" d="M209.5,779.2c0,0-14.1-8.3-14.6-4.5s-6.7,18.2-9.7,19.8c-3,1.5-6.8,18.2,0,17.5c5.3-0.6,24.7-10.8,33.2-15.3
	c2.2-1.2,3-3.8,2-6.1c-0.5-0.9-0.8-1.9-1-3C219.4,786.1,209.5,779.2,209.5,779.2z"/>
<path class="st4" d="M216.3,624.9c0,0-55.5,25.8-50.2,45.6c5.3,19.8,25.1,103.4,25.1,103.4s22,5.3,23.6,0s-14.4-88.2-12.9-91.2
	c1.5-3,29.7-22.8,29.7-22.8l57.8-24.3L265,612.7L216.3,624.9z"/>
<polygon class="st8" points="174.5,776.2 167.7,793.7 179.9,799 187.5,785.3 "/>
<path class="st7" d="M215.6,500.2c0,0,6.8,9.1,1.5,13.7c-5.3,4.6-1.5,21.3-1.5,21.3l6.8,19l27.4-5.3v-31.2l-1.5-15.2
	c0,0-13.7-12.9-15.2-22.8S215.6,500.2,215.6,500.2z"/>
<path class="st5" d="M215.6,499.7c0,0,6.8,9.1,1.5,13.7c-5.3,4.6-1.5,21.3-1.5,21.3l6.8,19l27.4-5.3v-31.2l-1.5-15.2
	c0,0-13.7-12.9-15.2-22.8S215.6,499.7,215.6,499.7z"/>
<path class="st4" d="M261.2,618.8c0,0-35.7,39.5-35.7,41.1c0,1.5-19,32.7-19,32.7l-37.3,82.9c0,0,14.4,19.8,20.5,18.2
	c6.1-1.5,49.4-89.7,49.4-89.7s7.6-19.8,28.1-24.3c20.5-4.6,36.5-20.5,28.9-38.8S261.2,618.8,261.2,618.8z"/>
<circle class="st7" cx="215.6" cy="481.2" r="24.3"/>
<path class="st0" d="M216.3,520.7c0,0,3,17.5,6.1,19c3,1.5,5.3,6.8,12.2-0.8s12.9-22.8,12.9-22.8l23.6,28.9l2.3,79.8
	c0,0-26.6-6.8-35,0c-8.4,6.8-26.6,6.1-26.6,6.1l3.8-15.2l-3-25.8l0.8-23.6l0.8-16.7L216.3,520.7z"/>
<path class="st8" d="M219,507.9c0,0-10.3,5.2-11,8.2s-14.4,9.1-14.4,9.1s-5.3,5.3-5.3,8.4s18.2,38,18.2,38s3.8,23.6,2.3,28.1
	s3,22,3,22l-9.1,10.6h8.4c0,0,9.1-4.6,9.1-6.8s-1.5-18.2-2.3-25.1c-0.8-6.8-0.8-31.2,0.8-39.5s0.8-30.4,0.8-35.7
	S219,507.9,219,507.9z"/>
<path class="st8" d="M242.6,496.4c0,0,3.4,0.8,13.3,3.8s25.1,7.6,30.4,13.7c3.7,4.5,7,9.3,9.9,14.4l-3,54.7c0,0,6.1,11.4,5.3,17.5
	s-6.8,6.8-2.3,19.8s13.7,24.3,5.3,25.8c-8.4,1.5-30.4-3.8-40.3-0.8S239.9,634,239.9,634s15.2,1.5,12.9-4.6
	c-2.3-6.1-27.4-74.5-22-89.7C236.1,524.5,242.6,496.4,242.6,496.4z"/>
<path class="st8" d="M192,529.9l-3.8,3c0,0-10.6,38-7.6,41.8c3,3.8,27.4,12.2,28.9,6.8S192,529.9,192,529.9z"/>
<path class="st7" d="M304.5,556.5c0,0,11.4,32.7,11.4,41.8c0,9.1-1.5,62.3-1.5,62.3s-0.8,22.8-16.7,13.7c-16-9.1,0-15.2,0-15.2
	s-0.8-60.1-6.8-68.4s-8.4-20.5-8.4-20.5L304.5,556.5z"/>
<path class="st4" d="M179.9,792.9c0,0-11.4-6.1-13.7-1.5c-2.3,4.6-14.4,29.7-12.9,32.7c1.5,3,9.9,15.2,19.8,12.2s10.6-19,10.6-19
	l0.8-18.2L179.9,792.9z"/>
<path class="st4" d="M210.8,475.3c1.7,0.8,3.7,1.3,4.7,2.8c0.8,1.1,0.9,2.6,1.4,3.8c1.3,2.6,4.4,3.7,7,2.6c0.3-1.5,1.2-2.9,2.5-3.7
	c1.3-0.9,3-0.8,4.3,0.2c1.6,1.5,1,4.1,1.7,6.1c0.7,1.4,1.6,2.7,2.8,3.8c1.7,1.9,3,4.2,5,5.7s5,2.2,7,0.7c1.7-1.3,2-3.8,1.6-5.9
	s-1.4-4-2-6.1c-1.8-6.7,1.1-13.8,0.2-20.7c-1.2-8.8-8.7-15.8-17-18.8c-3.5-1.4-7.3-1.8-11-1.2c-3.8,0.9-7.1,3.3-10.8,4.7
	c-3.9,1.5-8.2,1.7-12.3,2.6s-8.3,2.6-10.7,6c-1.7,2.4-2.2,5.4-3.6,8c-1.6,2.9-4.1,5.2-7.2,6.5l4.3-0.2c-0.7,1.9-1.9,3.7-3.5,5
	c2,0.4,4.1,0.1,6-0.8c-0.1,1.8-0.9,3.5-2.2,4.7c3.3-0.1,6.9-0.3,9.7-2c1.4-0.9,2.5-2.1,3.8-3.1c2.8-2.1,6.2-3.1,9.6-4.1
	c1.8-0.5,3.9-1.2,5.5-0.1C208.9,472.8,209.1,474.5,210.8,475.3z"/>
<path class="st8" d="M284.8,519.2l11.4,9.1l15.2,35c0,0-21.3,16.7-26.6,14.4s-14.4-42.6-14.4-42.6L284.8,519.2z"/>
<path class="st3" d="M171.4,554.5l-0.2,1.4l-1.2,8.6l-1.9,14.1l-0.5,3.5c-0.1,0.6-0.6,1-1.1,1h-12.9c-0.6,0-1-0.4-1.1-1l-0.5-3.5
	l-2-14.1l-1.2-8.6l-0.2-1.4c-0.1-0.6,0.3-1.2,1-1.3c0.1,0,0.1,0,0.2,0h20.5c0.6,0,1.1,0.5,1.1,1.1
	C171.4,554.4,171.4,554.5,171.4,554.5z"/>
<path class="st4" d="M151.2,549.5H169c0.6,0,1.1,0.5,1.1,1.1v1.5c0,0.6-0.5,1.1-1.1,1.1h-17.8c-0.6,0-1.1-0.5-1.1-1.1v-1.5
	C150,550,150.5,549.5,151.2,549.5z"/>
<path class="st4" d="M173,555.1c-8.6,0.9-17.3,0.9-25.9,0c-0.6,0-1.1-0.5-1.1-1.1l0,0v-1.5c0-0.6,0.5-1.1,1.1-1.1
	c8.6,1.1,17.3,1.1,25.9,0c0.6,0,1.1,0.5,1.1,1.1v1.5C174.1,554.6,173.6,555.1,173,555.1z"/>
<path class="st4" d="M168.6,578.2h-17.3c-0.3,0-0.6-0.2-0.6-0.6l-1.9-11.8c-0.1-0.4,0.2-0.7,0.5-0.7c0,0,0.1,0,0.1,0h21.2
	c0.4,0,0.7,0.3,0.7,0.7c0,0,0,0.1,0,0.1l-2,11.8C169.2,577.9,169,578.2,168.6,578.2z"/>
</svg>
