<?xml version="1.0" encoding="utf-8"?>
<!-- Generator: Adobe Illustrator 22.0.0, SVG Export Plug-In . SVG Version: 6.00 Build 0)  -->
<svg version="1.1" id="Capa_1" xmlns="http://www.w3.org/2000/svg" xmlns:xlink="http://www.w3.org/1999/xlink" x="0px" y="0px"
	 viewBox="0 0 600.9 625.7" style="enable-background:new 0 0 600.9 625.7;" xml:space="preserve">
<style type="text/css">
	.st0{font-family:'Raleway-Bold';}
	.st1{font-size:121.66px;}
	.st2{letter-spacing:-9;}
</style>
<title>fav</title>
<path d="M262.5,248.1L438,70c-18.8-18.5-44-28.8-70.4-28.8c-26.3,0-51.4,11-69.8,29.4L192,177.7l-33.7-34.3
	c27.7-35.3,24.9-85.7-6.7-117.5C116.7-8.3,61-8.9,26.2,25.9c-34.9,34.3-34.9,90.6,0,125.5l96.7,97.3l-95.5,96.1
	c-34.3,34.8-34.3,90.7,0,125.5c34.8,34.4,91,34.1,125.5-0.6c31.8-31.8,34.3-82.6,6.7-117.5l32.4-33l56.3,56.9l69.1-71L262.5,248.1z
	 M111.8,112.8c-13,13-34.1,13-47.1,0s-13-34.1,0-47.1c13-13,34.1-13,47.1,0C125.3,78.6,125.3,99.4,111.8,112.8z M113.7,430.5
	c-12.8,12.9-34.3,13.5-47.1,0c-12.9-13.1-12.9-34.1,0-47.1c12.9-12.9,34.3-13.5,47.1,0C127.1,396.2,127.1,417,113.7,430.5z
	 M192,282.4c-18.6,0-33.7-15.1-33.7-33.7c0-18.6,15.1-33.7,33.7-33.7c18.6,0,33.7,15.1,33.7,33.7c0.1,18.5-14.9,33.6-33.5,33.7
	C192.2,282.4,192.1,282.4,192,282.4L192,282.4z M212.2,444.5l31.2,30.6l-39.2,39.8l-31.2-30.6L212.2,444.5z M133.9,524.7l31.2,30.6
	l-39.2,39.8l-31.2-30.6L133.9,524.7z M448.5,204.6l31.2,30.6L440.5,275l-31.2-30.6L448.5,204.6z M558,155.1l-39.2,39.8l-31.2-30.6
	l39.2-39.8L558,155.1z M370.1,284.8l31.2,30.6l-39.2,39.8l-31.2-30.6L370.1,284.8z M291.1,364.4l31.3,30.6l-39.8,40.4l-31.2-30.6
	L291.1,364.4z"/>
<text transform="matrix(0.688 -0.7257 0.7257 0.688 302.0301 605.7902)" class="st0 st1">WW</text>
<text transform="matrix(0.688 -0.7257 0.7257 0.688 478.6263 419.5011)" class="st0 st1 st2">W</text>
<text transform="matrix(0.688 -0.7257 0.7257 0.688 560.4814 333.1534)" class="st0 st1">.</text>
</svg>
