<svg id="Capa_1" data-name="Capa 1" xmlns="http://www.w3.org/2000/svg" viewBox="0 0 600.88 625.65"><defs><style>.cls-1{font-size:121.66px;font-family:Raleway-ExtraBold, Raleway;font-weight:700;}.cls-2{letter-spacing:-0.08em;}.cls-3{letter-spacing:0em;}</style></defs><title>fav</title><path d="M281,248.09,456.59,70a100.07,100.07,0,0,0-70.38-28.77c-26.32,0-51.41,11-69.77,29.38L210.57,177.71,176.9,143.44a88.85,88.85,0,0,0-6.73-117.51C135.29-8.34,79.6-8.95,44.71,25.93c-34.88,34.28-34.88,90.58,0,125.46l96.7,97.31L45.94,344.78a89.41,89.41,0,0,0,0,125.47,88.83,88.83,0,0,0,125.46-.62c31.82-31.82,34.27-82.62,6.73-117.5l32.44-33.05L266.87,376,336,305ZM130.39,112.84a33.32,33.32,0,1,1,0-47.13C143.86,78.57,143.86,99.37,130.39,112.84Zm1.84,317.63c-12.85,12.85-34.27,13.46-47.12,0a33.61,33.61,0,0,1,0-47.13c12.85-12.85,34.27-13.46,47.12,0C145.69,396.19,145.69,417,132.23,430.47Zm78.34-148.11a33.66,33.66,0,1,1,33.66-33.66A33.56,33.56,0,0,1,210.57,282.36Zm20.19,162.18L262,475.14l-39.16,39.78-31.22-30.6Zm-78.33,80.18,31.21,30.6-39.17,39.77-31.21-30.6ZM467,204.64l31.22,30.6L459,275l-31.21-30.6Zm109.55-49.57-39.17,39.78-31.21-30.6,39.17-39.78ZM388.66,284.81l31.21,30.6L380.7,355.19l-31.21-30.6Zm-79,79.56L340.92,395l-39.78,40.39-31.21-30.6Z" transform="translate(-18.55 0)"/><text class="cls-1" transform="translate(302.03 605.79) rotate(-46.53)">WW<tspan class="cls-2" x="256.69" y="0">W</tspan><tspan class="cls-3" x="375.67" y="0">.</tspan></text></svg>