<?xml version="1.0" encoding="utf-8"?>
<!-- Generator: Adobe Illustrator 22.0.0, SVG Export Plug-In . SVG Version: 6.00 Build 0)  -->
<svg version="1.1" id="b13b70b1-aa4f-457d-9f62-b44ed99594ac"
	 xmlns="http://www.w3.org/2000/svg" xmlns:xlink="http://www.w3.org/1999/xlink" x="0px" y="0px" viewBox="0 0 846 713.5"
	 style="enable-background:new 0 0 846 713.5;" xml:space="preserve">
<style type="text/css">
	.st0{fill:#6C63FF;}
	.st1{fill:#3F3D56;}
	.st2{fill:#F2F2F2;}
	.st3{fill:none;stroke:#3F3D56;stroke-width:2;stroke-miterlimit:10;}
	.st4{fill:#FCFCFC;}
	.st5{fill:#FFFFFF;}
	.st6{fill:#2F2E41;}
	.st7{fill:#FDA57D;}
	.st8{opacity:0.1;enable-background:new    ;}
	.st9{fill:#D0CDE1;}
</style>
<title>social thinking</title>
<path class="st0" d="M93.5,679.9c0,22.5-13.4,30.3-29.8,30.3c-0.4,0-0.8,0-1.1,0c-0.8,0-1.5-0.1-2.3-0.1
	c-14.9-1.1-26.4-9.3-26.4-30.2c0-21.6,27.6-48.9,29.7-50.9l0,0c0.1-0.1,0.1-0.1,0.1-0.1S93.5,657.4,93.5,679.9z"/>
<path class="st1" d="M62.6,706.8l10.9-15.2l-10.9,16.9l0,1.8c-0.8,0-1.5-0.1-2.3-0.1l1.2-22.5l0-0.2l0,0l0.1-2.1l-11-17l11,15.4
	l0,0.5l0.9-17l-9.4-17.5l9.5,14.5l0.9-35.2l0-0.1v0.1l-0.2,27.8l9.3-11l-9.4,13.4l-0.2,15.2l8.7-14.6l-8.8,16.8l-0.1,8.5l12.7-20.3
	l-12.7,23.3L62.6,706.8z"/>
<path class="st2" d="M733.1,394.4c0,176.2-80,315.2-178.5,319c-128.5,5-296.4-123.1-178.5-319c90.8-151,79.9-319,178.5-319
	S733.1,218.2,733.1,394.4z"/>
<rect x="374.9" y="488" class="st0" width="254.5" height="221"/>
<line class="st3" x1="0" y1="709.1" x2="846" y2="709.1"/>
<path class="st4" d="M558.7,0c-13.5,0-24.4,10.9-24.4,24.4c0,9.7,5.7,18.4,14.6,22.3c-0.1-1.9,0-3.8,0.4-5.6
	c0.5-2,3.1-13.3,3.1-13.3c-0.5-1.2-0.8-2.5-0.8-3.9c0-3.6,2.1-6.3,4.7-6.3c2.2,0,3.3,1.7,3.3,3.7c0,2.2-1.4,5.6-2.2,8.6
	c-0.5,2,0.7,4.1,2.7,4.6c0.4,0.1,0.7,0.1,1.1,0.1c4.6,0,7.7-5.9,7.7-13c0-5.3-3.6-9.3-10.1-9.3c-6.4-0.3-11.7,4.7-12,11.1
	c0,0.2,0,0.4,0,0.6c-0.1,1.7,0.5,3.4,1.6,4.8c0.4,0.3,0.5,0.9,0.3,1.4c-0.1,0.4-0.4,1.5-0.5,2c-0.1,0.5-0.5,0.8-1,0.7
	c-0.1,0-0.2,0-0.3-0.1c-3.4-1.4-5-5.1-5-9.3c0-6.9,5.8-15.2,17.4-15.2c9.3,0,15.4,6.7,15.4,14c0,9.6-5.3,16.7-13.2,16.7
	c-2.6,0-5.1-1.4-6-3c0,0-1.4,5.6-1.7,6.7c-0.6,1.8-1.4,3.6-2.4,5.2c12.9,3.8,26.5-3.6,30.3-16.5S578.5,4.8,565.6,1
	C563.4,0.3,561,0,558.7,0z"/>
<path class="st4" d="M799.3,176.2c-1.9,0.9-4,1.4-6,1.7c2.2-1.3,3.8-3.4,4.6-5.8c-2.1,1.2-4.3,2.1-6.7,2.6c-4-4.2-10.6-4.5-14.9-0.5
	c-2.1,2-3.3,4.8-3.3,7.7c0,0.8,0.1,1.6,0.3,2.4c-8.5-0.4-16.4-4.4-21.7-11c-2.8,4.8-1.4,11,3.3,14.1c-1.7,0-3.3-0.5-4.8-1.3v0.1
	c0,5,3.5,9.3,8.5,10.3c-0.9,0.2-1.8,0.4-2.8,0.4c-0.7,0-1.3-0.1-2-0.2c1.4,4.3,5.3,7.2,9.8,7.3c-3.7,2.9-8.3,4.5-13.1,4.5
	c-0.8,0-1.7-0.1-2.5-0.2c4.8,3.1,10.4,4.8,16.1,4.8c19.4,0,30-16.1,30-30c0-0.5,0-0.9,0-1.4C796.1,180.2,797.9,178.3,799.3,176.2z"
	/>
<path class="st5" d="M393.9,31h-37.2c-1.3,0-2.3,1-2.3,2.3v37.2c0,1.3,1,2.3,2.3,2.3h18.6V56.3h-5v-6.1h5v-4.5
	c0-5.4,3.7-8.3,8.6-8.3c2.3,0,4.8,0.2,5.4,0.3v5.6h-3.8c-2.6,0-3.1,1.2-3.1,3.1v3.9h6.2l-0.8,6.1h-5.4v16.5h11.6
	c1.3,0,2.3-1,2.3-2.3V33.3C396.2,32,395.2,31,393.9,31z"/>
<path class="st4" d="M398.6,185.7c4.8,0,8.7,3.9,8.7,8.7v17.4c0,4.8-3.9,8.7-8.7,8.7h-17.4c-4.8,0-8.7-3.9-8.7-8.7v-17.4
	c0-4.8,3.9-8.7,8.7-8.7H398.6 M398.6,182.2h-17.4c-6.7,0-12.2,5.5-12.2,12.2v17.4c0,6.7,5.5,12.2,12.2,12.2h17.4
	c6.7,0,12.2-5.5,12.2-12.2v-17.4C410.8,187.7,405.3,182.2,398.6,182.2z"/>
<path class="st4" d="M401.2,194.4c-1.4,0-2.6-1.2-2.6-2.6s1.2-2.6,2.6-2.6c1.4,0,2.6,1.2,2.6,2.6c0,0,0,0,0,0
	C403.8,193.2,402.7,194.4,401.2,194.4C401.2,194.4,401.2,194.4,401.2,194.4z M389.9,196.1c3.8,0,7,3.1,7,7c0,3.8-3.1,7-7,7
	c-3.8,0-7-3.1-7-7v0C382.9,199.3,386.1,196.1,389.9,196.1 M389.9,192.7c-5.8,0-10.4,4.7-10.4,10.4s4.7,10.4,10.4,10.4
	c5.8,0,10.4-4.7,10.4-10.4c0,0,0,0,0,0C400.3,197.3,395.7,192.7,389.9,192.7L389.9,192.7z"/>
<path class="st4" d="M702.6,10.5h-34.9c-1.9-0.1-3.5,1.4-3.6,3.2c0,0,0,0,0,0v34.9c0,2,1.6,3.5,3.6,3.6h34.8
	c1.9-0.1,3.4-1.7,3.4-3.6V13.8c0-1.8-1.4-3.2-3.1-3.3C702.7,10.5,702.6,10.5,702.6,10.5z M677.1,45.3h-6V26.7h6V45.3z M674.3,23.9
	L674.3,23.9c-1.8,0-3.3-1.5-3.3-3.3c0-1.8,1.5-3.2,3.3-3.2c1.8,0,3.2,1.5,3.2,3.3C677.5,22.4,676.1,23.9,674.3,23.9z M699,45.3h-6
	V35.2c0-2.4-0.9-4.1-3-4.1c-1.4,0-2.6,0.9-3.1,2.2c-0.2,0.5-0.2,1-0.2,1.5v10.6h-6V26.7h6v2.6c1.1-1.9,3.2-3.1,5.4-3
	c3.9,0,6.9,2.6,6.9,8.2V45.3z"/>
<path class="st6" d="M537.4,268.1c0,0,42.3,1.2,49.3,3.7s10.1,20.7,10.1,20.7L564,302.9l-24.6-1.4l-18.5,1.3l10.3-27.1L537.4,268.1z
	"/>
<path class="st7" d="M539.3,254.2c0,0,2.8,10.8-3.4,18.4s26.6,34.8,26.6,34.8l17.3-3c0,0-3.8-33.1,1.3-41.4S539.3,254.2,539.3,254.2
	z"/>
<path class="st8" d="M539.7,264.4c0,0,2.8,10.8-3.4,18.4s26.6,34.8,26.6,34.8l17.3-3c0,0-3.8-33.1,1.3-41.4S539.7,264.4,539.7,264.4
	z"/>
<polygon class="st7" points="654.2,568.8 616.1,619.4 642.1,634.6 677.9,576 "/>
<path class="st6" d="M627.5,620.3c0,0-14-16.3-13.4-12.7s-10,34.5-0.1,37.5s94.6,10.9,95.8,1.3s-25.3-16.3-25.3-16.3
	s-15.7-15.1-19.2-13.6S627.5,620.3,627.5,620.3z"/>
<polygon class="st7" points="645.7,617.1 676.1,669 699.1,655.7 668.4,613.2 "/>
<path class="st6" d="M693.8,493.7l-9,12.8c0,0-43.1,59.9-38.5,64.7s23.6,23.1,33.3,19.6s44.1-64.7,44.1-64.7l-9-35.9L693.8,493.7z"
	/>
<path class="st6" d="M508.1,481.6c0,0,9.7,18,34.1,24.1s50,18.6,50.9,18.4s3.5-1.5,4.1,2.1s7.3,10,7.3,10s27,91.8,37.3,91.9
	s31.5-7.3,32-10.2s-31.6-96.7-31.9-98.5l-3.8-21.8c0,0,42.4,6.8,46.3,8s39.1,20.4,39.1,20.4s35.8-25.8,2.3-51.9
	s-91.1-45.2-91.1-45.2l-20.7-5.8l-18-1.1l-2.7-10.2l-42.7,2.5l-44.5,18.9L508.1,481.6z"/>
<circle class="st7" cx="564.4" cy="242.4" r="33.2"/>
<path class="st9" d="M534.3,269.1l4-0.7c0,0,7.2,27.8,29.6,32.4c0,0,11-13.2,10.5-15.4s8.7-14.1,13.6-7.5s-1.2,123.8,2.9,125.9
	s12.9,4.3,5.8,12.1s-35.3,18.2-41.5,14.6s-19-34.2-24.5-44.5s-14.3-45.3-14.3-45.3s-11.3-38.3-4.3-47S534.3,269.1,534.3,269.1z"/>
<path class="st6" d="M566.1,413.4c-0.7,8.2-2,16.3-3.8,24.3c-1.6,6.5-3.5,10.4-5.7,10.3c-5.5-0.4-8,7.7-9.3,17
	c-1.4,9.9-1.4,21.2-2.1,25.2c-1,5.3-7.4,9.3-20.3,8.1c-7.7-0.9-15.2-2.7-22.3-5.5c-17.3-6.3-16.8-57.5-13.9-95.4
	c1.8-23.3,4.4-41.6,4.4-41.6s-5.3-15.7-7-26.5c-0.3-2-0.5-4-0.5-5.9c0.3-9.4,17.4-34.8,27.8-50.7c10.4-15.8,24.6-4.2,24.6-4.2
	l-4.9,14.9c0,0,7.6,11.8,7.7,23s18.3,19.3,24.9,24.8C569.7,334.6,569.6,380.2,566.1,413.4z"/>
<path class="st6" d="M580.6,273.8c0,0,1.2,1.4,6.7,0.7c6.6-0.8,15.6,1.4,17.7,7.7c3.9,11.5,14.7,58.4,14.7,58.4s4.5,53.5,6.6,65.4
	s1,22.3,3,28.5s-19.8-11.6-27.8-9.3s-13.2-27.7-12.2-38.2s1.9-21.9-0.9-32.6s2.2-39.2,2-45.8S572.6,285.7,580.6,273.8z"/>
<path class="st7" d="M604.1,440.2c0,0,35.2,19.2,38.6,46.5c3.4,27.3-47.1-26.5-47.1-26.5L604.1,440.2z"/>
<path class="st7" d="M624.2,420.9c0,0,10.8,54.3,27.6,51.5s-9.4-54.6-9.4-54.6L624.2,420.9z"/>
<path class="st6" d="M681.7,657.8c0,0-8.6,9.9-10.7,8.4s-7,19-2.6,22.9s21.5,10.4,21.6,16.9s45.9,5.2,47.5-1.6s-5.7-22.4-10.9-25.3
	S702.3,650,702.3,650S687.3,652.1,681.7,657.8z"/>
<path class="st8" d="M598.5,473.5c-8.2-5.8-30.9-7.2-51.2-8.5c-8.9-0.6-17.3-1.1-23.7-2c-6.2-0.9-11.8-6.5-16.7-15
	c-7.5-12.8-13.6-32-18.3-50.5c1.8-23.3,4.4-41.6,4.4-41.6s-5.3-15.7-7-26.5c1.2-1.7,2.7-3,4.5-4c21.5-9.2,41.9,81.4,44.5,95.6
	c0,0.2,0.1,0.5,0.1,0.6c1.3,7.3,14.9,13.6,27.1,16.1c7.5,1.5,14.5,1.6,17.7-0.4c8.5-5.2,34.5,15.6,36.5,16.2
	C618.6,454.1,610.2,481.8,598.5,473.5z"/>
<path class="st6" d="M490.6,319.7c0,0-15.6,7.4-8.7,41.8s20.7,92.9,41.8,95.9s63.1,2.3,74.9,10.5s20.1-19.4,18.1-20
	s-28-21.4-36.5-16.2s-42.8-3.9-44.8-15.7S512.4,310.4,490.6,319.7z"/>
<path class="st6" d="M603,303.2l17.1,39.8c0,0,1.7-0.9,3.7,5.4s2.9,11.7,6.5,15.8s19.1,62.3,19.6,65s-21.6,12.1-26.5,4.6
	S603,303.2,603,303.2z"/>
<path class="st6" d="M545.5,241.9c1.3-0.3,1.5-2,1.5-3.3c0.2-7.1,4.5-14.3,11.2-16.3c2.6-0.7,5.3-0.9,8-0.4
	c3.8,0.5,7.4,1.7,10.8,3.6c1.8,1,3.5,2.2,5.5,2.5c1.3,0.2,7,1.9,8.3,2.1c2.9,0.5,5.6,3.1,8.3,2.1c2.6-0.9,3.2-4.3,3.3-7.2
	c0.1-6.4-4.7-15.2-9-20c-3.2-3.6-8.1-5.3-12.9-6.1c-5.6-0.9-11.2-1.2-16.9-1c-7.6,0.1-15.5,0.7-22.4,4s-12.7,9.9-13,17.5
	c-0.1,1.6,0.1,3.2,0,4.8c-0.3,3.9-2.4,7.4-3.3,11.1c-1.4,5.6-0.4,11.5,2.8,16.3c2.6,3.8,6.6,7.2,6.4,11.7l5.5-5.7
	c1.7-1.3,2.3-3.6,1.4-5.6l-2-7.6c-0.5-1.4-0.6-2.9-0.2-4.3C541.1,234.8,543.4,242.5,545.5,241.9z"/>
<path class="st2" d="M292.6,468.9c0,105.9-63,142.9-140.7,142.9s-140.7-37-140.7-142.9s140.7-240.7,140.7-240.7
	S292.6,363,292.6,468.9z"/>
<polygon class="st1" points="146.8,595.7 148.2,507 208.2,397.3 148.4,493.1 149.1,453.2 190.4,373.9 149.3,442.7 149.3,442.7 
	150.4,371 194.7,307.8 150.6,359.7 151.3,228.2 146.8,402.3 147.1,395.1 102.1,326.2 146.4,408.9 142.2,489 142.1,486.8 90.2,414.4 
	141.9,494.3 141.4,504.4 141.3,504.5 141.4,505.3 130.7,708.5 144.9,708.5 146.6,603.6 198.2,523.8 "/>
</svg>
