<?xml version="1.0" standalone="no"?>
<!DOCTYPE svg PUBLIC "-//W3C//DTD SVG 20010904//EN"
 "http://www.w3.org/TR/2001/REC-SVG-20010904/DTD/svg10.dtd">
<svg version="1.0" xmlns="http://www.w3.org/2000/svg"
 width="626.000000pt" height="626.000000pt" viewBox="0 0 626.000000 626.000000"
 preserveAspectRatio="xMidYMid meet">
<metadata>
Created by potrace 1.11, written by Peter Selinger 2001-2013
</metadata>
<g transform="translate(0.000000,626.000000) scale(0.100000,-0.100000)"
fill="#000000" stroke="none">
<path d="M851 6245 c-232 -51 -409 -164 -548 -350 -68 -90 -135 -233 -149
-315 -3 -14 -9 -47 -14 -75 -29 -154 9 -392 87 -533 77 -142 57 -119 711 -776
226 -228 412 -418 412 -423 0 -5 -219 -229 -486 -499 -267 -269 -505 -514
-528 -544 -40 -52 -116 -174 -115 -185 0 -3 -9 -31 -21 -63 -43 -113 -64 -314
-45 -422 2 -14 7 -41 11 -60 3 -19 15 -61 25 -94 113 -335 391 -560 744 -602
261 -30 537 68 723 259 63 64 122 140 122 156 0 5 4 11 9 13 11 4 63 117 85
184 27 82 42 193 40 289 -1 82 -16 187 -31 225 -3 8 -8 23 -10 33 -7 37 -98
214 -126 245 -10 10 -17 22 -17 26 0 10 311 326 321 326 3 0 111 -106 240
-236 129 -130 254 -256 279 -281 l44 -45 179 184 c442 454 502 517 502 527 0
8 -122 137 -468 494 -37 39 -66 74 -65 78 2 4 224 232 495 506 270 274 594
602 720 730 125 127 298 302 383 389 141 143 153 157 136 170 -10 7 -32 26
-50 41 -116 105 -314 193 -491 220 -62 9 -224 9 -285 1 -157 -23 -346 -104
-470 -203 -22 -17 -319 -314 -932 -932 -116 -117 -214 -213 -218 -213 -10 0
-330 328 -330 339 0 5 6 16 13 23 51 57 139 253 153 342 16 109 19 146 17 211
-1 39 -2 70 -3 70 -1 0 -3 15 -6 34 -13 104 -84 284 -139 357 -14 18 -25 36
-25 41 -1 16 -157 161 -218 202 -100 67 -223 117 -342 138 -67 12 -260 10
-319 -2z m300 -577 c67 -31 132 -94 166 -162 21 -41 26 -65 26 -126 0 -90 -6
-120 -38 -175 -169 -288 -609 -184 -621 147 -6 152 82 282 223 332 61 21 180
13 244 -16z m1042 -1593 c202 -96 255 -358 106 -528 -121 -140 -345 -148 -478
-18 -73 71 -101 135 -106 241 -6 144 116 302 253 326 15 3 28 7 30 9 2 2 34 2
70 0 48 -2 84 -11 125 -30z m-1085 -1561 c85 -14 183 -95 228 -188 23 -49 28
-73 28 -135 1 -64 -4 -86 -28 -135 -40 -82 -85 -128 -159 -165 -166 -81 -356
-18 -441 148 -24 45 -28 66 -31 141 -3 63 16 148 40 178 74 97 143 144 232
158 21 3 40 7 41 9 4 3 19 1 90 -11z"/>
<path d="M5201 4814 l-194 -197 155 -153 156 -154 194 196 c106 107 194 197
196 199 4 4 -295 298 -306 303 -4 1 -95 -86 -201 -194z"/>
<path d="M4422 4016 c-106 -106 -192 -197 -192 -200 0 -4 69 -75 152 -157
l153 -150 197 198 197 198 -156 153 c-85 83 -156 152 -157 152 -1 0 -88 -87
-194 -194z"/>
<path d="M5109 3554 c-35 -37 -69 -72 -76 -79 -9 -9 8 -42 75 -146 48 -74 90
-135 94 -137 5 -2 8 -8 8 -13 0 -8 67 -116 80 -129 10 -10 31 -45 36 -62 4
-10 9 -18 13 -18 4 0 15 -14 25 -31 l18 -31 -28 16 c-16 9 -36 21 -44 26 -34
22 -219 130 -223 130 -2 0 -55 31 -118 68 -63 38 -124 74 -136 80 -22 12 -19
15 -161 -134 -12 -12 -11 -19 5 -41 30 -42 51 -76 69 -107 9 -16 20 -34 26
-40 5 -6 47 -69 93 -141 46 -71 93 -142 104 -157 12 -14 21 -30 21 -34 0 -4 8
-17 18 -28 l17 -20 -35 20 c-19 11 -93 54 -165 94 -71 41 -132 77 -135 81 -3
3 -20 12 -37 20 -18 8 -33 17 -33 21 0 5 -4 8 -10 8 -5 0 -43 20 -84 44 l-75
44 -74 -76 c-204 -210 -205 -211 -175 -247 5 -5 30 -44 57 -85 27 -41 86 -130
130 -198 45 -68 81 -126 81 -129 0 -3 14 -23 31 -45 17 -21 29 -41 26 -44 -2
-3 -29 9 -58 27 -30 18 -79 46 -109 62 -30 17 -57 33 -60 36 -5 7 -81 49 -117
66 -13 5 -23 13 -23 18 0 4 -4 7 -9 7 -5 0 -48 23 -96 52 l-86 51 -75 -79
c-41 -43 -72 -84 -70 -90 2 -6 57 -91 122 -190 66 -98 120 -182 122 -186 2 -4
25 -40 52 -80 27 -40 47 -74 46 -75 -2 -2 -23 8 -47 21 -24 14 -55 31 -69 39
-14 7 -81 46 -150 87 -177 103 -189 110 -245 141 l-50 28 -72 -77 -73 -77 22
-18 c13 -10 40 -25 61 -35 20 -9 37 -20 37 -24 0 -5 5 -8 11 -8 6 0 30 -14 54
-30 24 -17 47 -30 50 -30 9 0 146 -80 166 -97 9 -7 19 -10 22 -6 4 3 7 1 7 -5
0 -7 5 -12 10 -12 6 0 36 -16 66 -35 30 -19 56 -35 59 -35 2 0 49 -27 104 -60
55 -33 105 -60 110 -60 19 0 181 174 178 190 -4 13 -68 114 -284 442 -68 104
-87 141 -62 121 24 -19 310 -183 320 -183 5 0 9 -4 9 -10 0 -5 4 -10 10 -10 5
0 49 -24 97 -52 147 -88 132 -87 205 -11 35 36 75 78 90 93 l26 27 -70 109
c-39 60 -114 174 -167 254 -53 80 -102 156 -109 170 -7 13 -17 27 -21 30 -7 5
-71 107 -71 114 0 4 122 -66 192 -110 21 -13 42 -24 48 -24 5 0 10 -4 10 -10
0 -5 5 -10 11 -10 6 0 65 -32 132 -72 67 -39 138 -80 157 -90 19 -10 55 -32
80 -48 25 -15 52 -29 60 -29 8 -1 54 40 101 91 l87 92 -24 35 c-13 20 -27 43
-31 51 -4 8 -9 17 -12 20 -4 3 -27 37 -51 75 -25 39 -48 72 -52 73 -5 2 -8 8
-8 13 0 5 -46 78 -102 162 -56 83 -93 145 -83 137 10 -8 20 -14 22 -12 2 1 13
-4 26 -12 61 -38 149 -86 158 -86 5 0 9 -3 9 -7 0 -5 10 -13 23 -18 37 -18
112 -60 117 -66 3 -3 35 -22 72 -42 37 -20 86 -48 108 -62 22 -14 43 -25 46
-25 6 0 28 22 142 144 l43 46 -41 59 c-22 33 -40 64 -40 70 0 5 -4 11 -8 13
-5 2 -27 32 -50 68 -23 36 -47 72 -52 80 -64 93 -294 447 -295 452 -1 23 -20
11 -76 -48z"/>
<path d="M3777 3356 c-26 -28 -113 -117 -192 -197 l-145 -145 156 -154 156
-154 194 197 c107 108 194 198 194 200 0 2 -50 53 -111 113 -62 60 -126 124
-143 142 -51 55 -56 55 -109 -2z"/>
<path d="M5744 3269 c-32 -34 -65 -67 -71 -75 -7 -7 -13 -15 -13 -18 0 -7 137
-138 154 -148 7 -4 40 23 83 68 l71 74 -32 33 c-18 17 -55 54 -83 80 l-50 48
-59 -62z"/>
<path d="M2845 2415 c-104 -108 -191 -199 -193 -203 -3 -9 293 -302 304 -302
6 0 292 287 373 374 l24 26 -154 150 c-85 82 -156 150 -159 150 -3 0 -90 -88
-195 -195z"/>
<path d="M2079 1635 c-96 -98 -184 -187 -197 -199 l-23 -20 158 -154 157 -154
193 196 c106 108 193 199 193 201 0 3 -46 50 -102 106 -57 55 -126 123 -154
150 l-51 51 -174 -177z"/>
<path d="M3330 1679 c-36 -39 -66 -74 -68 -79 -3 -7 76 -132 209 -333 33 -48
59 -92 59 -97 0 -6 5 -10 10 -10 6 0 10 -5 10 -11 0 -6 11 -25 24 -42 55 -75
81 -87 -324 150 l-205 120 -72 -76 c-40 -41 -73 -82 -73 -89 0 -8 9 -26 21
-40 11 -15 58 -85 104 -157 46 -71 89 -135 95 -142 5 -7 10 -14 10 -17 0 -3
19 -33 43 -68 80 -118 79 -117 57 -111 -11 3 -20 9 -20 14 0 5 -4 9 -8 9 -7 0
-290 161 -417 237 -22 13 -55 31 -72 40 l-33 16 -67 -72 c-38 -41 -68 -78 -68
-84 0 -6 25 -25 56 -41 30 -17 72 -41 92 -53 21 -12 39 -21 41 -20 2 1 12 -5
22 -14 11 -8 64 -41 119 -73 55 -31 107 -61 115 -66 8 -5 86 -50 173 -101
l157 -92 47 49 c25 27 66 70 91 96 l46 47 -57 86 c-31 46 -57 89 -57 94 0 5
-3 11 -7 13 -9 3 -73 96 -73 104 0 3 -5 10 -11 17 -18 21 -167 252 -164 255 1
2 30 -13 63 -33 33 -19 65 -35 71 -35 6 0 11 -3 11 -7 0 -5 10 -13 23 -19 12
-6 62 -34 110 -62 49 -29 93 -52 98 -52 5 0 9 -4 9 -10 0 -5 4 -10 10 -10 5 0
33 -14 62 -31 93 -55 118 -69 129 -69 6 0 38 30 72 67 34 36 72 75 85 86 12
12 22 24 22 29 0 7 -86 146 -107 173 -30 38 -183 277 -183 285 0 5 -4 10 -10
10 -5 0 -10 7 -10 15 0 8 -4 15 -8 15 -5 0 -14 10 -21 23 -32 60 -151 237
-160 237 -3 -1 -35 -32 -71 -71z"/>
<path d="M1318 856 c-81 -83 -168 -172 -194 -197 l-46 -46 152 -149 c83 -82
154 -151 156 -154 3 -2 93 85 200 195 l195 200 -144 140 c-78 77 -149 145
-157 151 -12 9 -43 -17 -162 -140z"/>
</g>
</svg>
